<svg width="152" height="31" viewBox="0 0 152 31" fill="none" xmlns="http://www.w3.org/2000/svg">
<path d="M33.4277 22.6093V8.67578H41.8664V11.363H36.4135V14.4273H41.0912V17.1354H36.4135V22.6093H33.4277Z" fill="black"/>
<path d="M44.6738 22.6093V8.67578H47.6596V22.6093H44.6738Z" fill="black"/>
<path d="M54.2279 14.7469V22.6094H51.2422V8.36157H51.5408L60.1995 16.4598V8.67587H63.1852V22.9237H62.8866L54.2279 14.7417V14.7469Z" fill="black"/>
<path d="M66.7695 22.6093V8.67578H72.081C75.9206 8.67578 78.9692 11.8187 78.9692 15.6425C78.9692 19.4664 75.9258 22.6093 72.081 22.6093H66.7695ZM69.7553 11.363V19.9221H71.8663C74.213 19.9221 75.9678 17.9892 75.9678 15.6425C75.9678 13.2958 74.2182 11.363 71.8663 11.363H69.7553Z" fill="black"/>
<path d="M90.4896 11.2903V12.846H88.6091V19.3571H86.8805V12.846H85V11.2903H90.4844H90.4896Z" fill="black"/>
<path d="M97.1623 19.3619V16.1352H93.7052V19.3619H91.9766V11.2952H93.7052V14.5219H97.1623V11.2952H98.8909V19.3619H97.1623Z" fill="black"/>
<path d="M100.967 19.3619V11.2952H105.912V12.8509H102.695V14.4171H105.461V15.9728H102.695V17.8062H105.912V19.3619H100.967Z" fill="black"/>
<path d="M121.749 12.1592C121.131 11.5621 120.256 11.164 119.02 11.164C116.574 11.164 114.96 13.3116 114.96 15.6426C114.96 17.9736 116.495 20.1213 118.941 20.1213C119.795 20.1213 120.513 19.9432 121.073 19.6236V16.9784H118.486V14.2702H124.059V20.8965C123.043 21.8499 121.293 22.8084 118.706 22.8084C114.547 22.8084 111.959 19.6027 111.959 15.6426C111.959 11.6826 114.568 8.47681 119.004 8.47681C120.675 8.47681 122.21 8.89586 123.383 9.96969L121.749 12.1592Z" fill="black"/>
<path d="M132.242 8.35669L138.732 22.6045H135.547L134.793 20.8131H129.461L128.706 22.6045H125.521L132.012 8.35669H132.253H132.242ZM130.43 18.5292H133.814L132.122 14.6268L130.43 18.5292Z" fill="black"/>
<path d="M140.681 22.6098V8.67627H146.888C149.513 8.67627 151.686 10.8239 151.686 13.4535C151.686 16.083 149.518 18.2307 146.888 18.2307H143.662V22.6098H140.676H140.681ZM143.667 11.2639V15.643H146.495C147.69 15.643 148.685 14.6687 148.685 13.4535C148.685 12.2382 147.69 11.2639 146.495 11.2639H143.667Z" fill="black"/>
<path d="M21.9265 12.8545H15.877V18.9041H21.9265V12.8545Z" fill="#3CDC84"/>
<path d="M22.6822 6.04958V0H0V3.78136V6.04958V31H6.80466V18.9008H12.8513V12.8542H6.80466V6.04958H22.6822Z" fill="#3CDC84"/>
</svg>